<svg width="24" height="24" viewBox="0 0 24 24" fill="none" xmlns="http://www.w3.org/2000/svg" aria-label="Корзина"><path fill-rule="evenodd" clip-rule="evenodd" d="M11 7.5L16.2071 2.29289C16.3946 2.10536 16.649 2 16.9142 2H18.5L14.375 7.5H23.5L23.2122 8.79525C23.0882 9.3531 22.5934 9.75 22.022 9.75C21.7908 9.75 21.5913 9.91232 21.5444 10.1387L19.8305 18.406C19.638 19.3343 18.8202 20 17.8721 20H6.12789C5.17981 20 4.362 19.3343 4.16954 18.406L2.45558 10.1387C2.40865 9.91232 2.20923 9.75 1.97804 9.75C1.40658 9.75 0.9118 9.3531 0.787833 8.79525L0.5 7.5H11ZM5.5 10.5H8.20833L8.75 17.5H7.0119C6.76529 17.5 6.5555 17.3202 6.51779 17.0765L5.5 10.5ZM10.6458 10.5H13.3542L13.0833 17.5H10.9167L10.6458 10.5ZM18.5 10.5H15.7917L15.25 17.5H16.9881C17.2347 17.5 17.4445 17.3202 17.4822 17.0765L18.5 10.5Z" fill="#21201F"></path></svg>